<?xml version="1.0" encoding="utf-8"?>
<!-- Generator: Adobe Illustrator 28.3.0, SVG Export Plug-In . SVG Version: 6.00 Build 0)  -->
<svg version="1.1" id="Layer_1" xmlns="http://www.w3.org/2000/svg" xmlns:xlink="http://www.w3.org/1999/xlink" x="0px" y="0px"
	 viewBox="0 0 2361 336" style="enable-background:new 0 0 2361 336;" xml:space="preserve">
<style type="text/css">
	.st0{fill:#105E53;}
</style>
<path class="st0" d="M2126.7,249l10.2-44.5h144.8l9.8,44.5H2126.7z M2208.2,105.6l-49,114.5l-0.9,11.6l-43.2,97.5h-59.2L2208.2,0
	L2361,329.2h-59.7l-42.3-94.9l-0.9-12.9L2208.2,105.6z"/>
<path class="st0" d="M1789.6,139.4l-21.4,189.7h-54.3l42.8-327.4l127.8,211.6L2012.8,1.8l42.8,327.4h-54.3l-21.4-189.7l-95.3,160.8
	L1789.6,139.4z"/>
<path class="st0" d="M1429.9,173.3c0,21.4,4.6,40.4,13.8,57c9.2,16.6,21.7,29.8,37.4,39.6c16,9.5,34.3,14.3,54.8,14.3
	c20.8,0,39.1-4.8,54.8-14.3c16-9.8,28.5-23,37.4-39.6c9.2-16.6,13.8-35.6,13.8-57s-4.4-40.4-13.4-57c-8.9-16.9-21.4-30.1-37.4-39.6
	c-15.7-9.5-34.2-14.3-55.2-14.3c-20.5,0-38.8,4.8-54.8,14.3c-15.7,9.5-28.2,22.7-37.4,39.6C1434.5,132.9,1429.9,151.9,1429.9,173.3z
	 M1374.2,173.3c0-23.5,4-45,12-64.6c8-19.6,19.3-36.5,33.9-50.8c14.8-14.6,32.1-25.8,51.7-33.9c19.9-8.3,41.3-12.5,64.1-12.5
	c23.5,0,45,4.2,64.6,12.5c19.6,8,36.7,19.3,51.2,33.9c14.8,14.3,26.3,31.2,34.3,50.8c8,19.6,12,41.1,12,64.6c0,23.2-4,44.7-12,64.6
	c-8,19.9-19.3,37.1-33.9,51.7c-14.6,14.5-31.6,26-51.2,34.3c-19.6,8-41.3,12-65,12c-23.2,0-44.7-4-64.6-12
	c-19.6-8.3-36.7-19.7-51.2-34.3c-14.6-14.6-25.8-31.8-33.9-51.7C1378.2,218,1374.2,196.4,1374.2,173.3z"/>
<path class="st0" d="M1172.4,228.5c6.8,12.2,14.1,22.7,21.8,31.6c8,8.9,16.8,15.9,26.3,20.9c9.8,5,20.5,7.6,32.1,7.6
	c14.3,0,25.8-3.9,34.8-11.6c8.9-7.7,13.4-17.8,13.4-30.3c0-11.3-2.8-20.3-8.5-27.2c-5.3-7.1-13.1-13.1-23.2-17.8
	c-10.1-5-21.7-9.9-34.7-14.7c-7.7-2.7-16.3-6.2-25.8-10.7c-9.5-4.8-18.6-10.5-27.2-17.4c-8.6-7.1-15.7-15.7-21.4-25.8
	c-5.6-10.4-8.5-22.9-8.5-37.4c0-16.6,4.3-31.2,12.9-43.7c8.6-12.8,20.2-22.7,34.8-29.8c14.8-7.1,31.6-10.7,50.3-10.7
	c18.4,0,34.4,3.4,48.1,10.2c13.7,6.5,25.2,14.8,34.7,24.9c9.5,10.1,16.8,20.6,21.8,31.6l-42.3,24.1c-4.2-7.7-9.2-14.8-15.1-21.4
	c-5.9-6.8-12.9-12.2-20.9-16c-7.7-4.2-16.8-6.2-27.2-6.2c-14.6,0-25.2,3.4-32.1,10.2c-6.8,6.5-10.2,14.3-10.2,23.2
	c0,8,2.4,15.3,7.1,21.8c5.1,6.2,12.8,12.2,23.2,17.8c10.4,5.6,23.9,11.4,40.5,17.4c9.5,3.3,18.9,7.4,28.1,12.5
	c9.5,5,18,11.3,25.4,18.7c7.7,7.4,14,16.3,18.7,26.7c4.8,10.1,7.1,22,7.1,35.6c0,14.6-3,27.6-8.9,39.2
	c-5.6,11.6-13.4,21.4-23.2,29.4c-9.8,7.7-20.9,13.7-33.4,17.8c-12.2,4.5-24.9,6.7-38.3,6.7c-18.1,0-35-3.6-50.8-10.7
	c-15.4-7.4-29.1-17.2-41-29.4c-11.6-12.2-20.8-25.4-27.6-39.6L1172.4,228.5z"/>
<path class="st0" d="M912.2,17.4h52.6v311.8h-52.6V17.4z M943.4,63.7V17.4h62.8c22.9,0,42.6,4,59.2,12c16.6,7.7,29.5,18.9,38.8,33.4
	c9.5,14.3,14.2,31.3,14.2,51.2c0,19.9-4.8,37.1-14.2,51.7c-9.2,14.6-22.1,25.8-38.8,33.9c-16.6,7.7-36.4,11.6-59.2,11.6h-62.8v-46.3
	h62.8c18.1,0,32.7-4.3,43.6-12.9c11-8.6,16.5-21.2,16.5-37.9c0-16.6-5.5-29.1-16.5-37.4c-11-8.6-25.5-12.9-43.6-12.9H943.4z"/>
<path class="st0" d="M610.3,173.3c0,21.4,4.6,40.4,13.8,57c9.2,16.6,21.7,29.8,37.4,39.6c16,9.5,34.3,14.3,54.8,14.3
	c20.8,0,39-4.8,54.8-14.3c16-9.8,28.5-23,37.4-39.6c9.2-16.6,13.8-35.6,13.8-57s-4.5-40.4-13.4-57c-8.9-16.9-21.4-30.1-37.4-39.6
	c-15.7-9.5-34.1-14.3-55.2-14.3c-20.5,0-38.8,4.8-54.8,14.3c-15.7,9.5-28.2,22.7-37.4,39.6C614.9,132.9,610.3,151.9,610.3,173.3z
	 M554.6,173.3c0-23.5,4-45,12-64.6c8-19.6,19.3-36.5,33.9-50.8c14.8-14.6,32.1-25.8,51.7-33.9c19.9-8.3,41.3-12.5,64.1-12.5
	c23.5,0,45,4.2,64.6,12.5c19.6,8,36.7,19.3,51.2,33.9c14.8,14.3,26.3,31.2,34.3,50.8c8,19.6,12,41.1,12,64.6c0,23.2-4,44.7-12,64.6
	c-8,19.9-19.3,37.1-33.9,51.7c-14.5,14.5-31.6,26-51.2,34.3c-19.6,8-41.3,12-65,12c-23.2,0-44.7-4-64.6-12
	c-19.6-8.3-36.7-19.7-51.2-34.3c-14.5-14.6-25.8-31.8-33.9-51.7C558.7,218,554.6,196.4,554.6,173.3z"/>
<path class="st0" d="M279.8,186.2v-48.5h222.7v48.5H279.8z M468.2,17.4h52.6v311.8h-52.6V17.4z M258.8,17.4h52.6v311.8h-52.6V17.4z"
	/>
<path class="st0" d="M39.2,228.5c6.8,12.2,14.1,22.7,21.8,31.6c8,8.9,16.8,15.9,26.3,20.9c9.8,5,20.5,7.6,32.1,7.6
	c14.3,0,25.8-3.9,34.7-11.6c8.9-7.7,13.4-17.8,13.4-30.3c0-11.3-2.8-20.3-8.5-27.2c-5.3-7.1-13.1-13.1-23.2-17.8
	c-10.1-5-21.7-9.9-34.7-14.7c-7.7-2.7-16.3-6.2-25.8-10.7c-9.5-4.8-18.6-10.5-27.2-17.4c-8.6-7.1-15.7-15.7-21.4-25.8
	c-5.6-10.4-8.5-22.9-8.5-37.4c0-16.6,4.3-31.2,12.9-43.7c8.6-12.8,20.2-22.7,34.7-29.8c14.8-7.1,31.6-10.7,50.3-10.7
	c18.4,0,34.4,3.4,48.1,10.2c13.7,6.5,25.2,14.8,34.7,24.9s16.8,20.6,21.8,31.6l-42.3,24.1c-4.2-7.7-9.2-14.8-15.1-21.4
	c-5.9-6.8-12.9-12.2-20.9-16c-7.7-4.2-16.8-6.2-27.2-6.2c-14.6,0-25.2,3.4-32.1,10.2C76.5,75.6,73,83.3,73,92.2
	c0,8,2.4,15.3,7.1,21.8c5,6.2,12.8,12.2,23.2,17.8c10.4,5.6,23.9,11.4,40.5,17.4c9.5,3.3,18.9,7.4,28.1,12.5
	c9.5,5,18,11.3,25.4,18.7c7.7,7.4,14,16.3,18.7,26.7c4.8,10.1,7.1,22,7.1,35.6c0,14.6-3,27.6-8.9,39.2
	c-5.6,11.6-13.4,21.4-23.2,29.4c-9.8,7.7-20.9,13.7-33.4,17.8c-12.2,4.5-24.9,6.7-38.3,6.7c-18.1,0-35-3.6-50.8-10.7
	c-15.4-7.4-29.1-17.2-41-29.4C16,283.6,6.8,270.4,0,256.1L39.2,228.5z"/>
</svg>
